<?xml version="1.0" encoding="utf-8"?>
<!-- Generator: Adobe Illustrator 16.0.0, SVG Export Plug-In . SVG Version: 6.00 Build 0)  -->
<!DOCTYPE svg PUBLIC "-//W3C//DTD SVG 1.1//EN" "http://www.w3.org/Graphics/SVG/1.1/DTD/svg11.dtd">
<svg version="1.1" id="Layer_1" xmlns="http://www.w3.org/2000/svg" xmlns:xlink="http://www.w3.org/1999/xlink" x="0px" y="0px"
	 width="102px" height="62px" viewBox="0 0 102 62" enable-background="new 0 0 102 62" xml:space="preserve">
<g>
	<g>
		<path fill="#F47752" d="M99.63,0H2.364C1.059,0,0,1.068,0,2.387v57.354c0,1.317,1.059,2.386,2.364,2.386h8.781
			c1.306,0,2.364-1.068,2.364-2.386V47.73h11.595v2.386c0,3.152,2.169,5.795,5.078,6.51c0.244,1.056,1.18,1.844,2.301,1.844h4.897
			c1.049,0,1.938-0.691,2.247-1.647H62.37c0.307,0.956,1.195,1.647,2.245,1.647h4.898c1.119,0,2.056-0.788,2.299-1.844
			c2.909-0.713,5.077-3.357,5.077-6.51V47.73h11.596v12.011c0,1.317,1.058,2.386,2.364,2.386h8.78c1.306,0,2.364-1.068,2.364-2.386
			V2.387C101.994,1.068,100.936,0,99.63,0L99.63,0z M72.162,50.116c0,1.066-0.859,1.933-1.913,1.933H31.747
			c-1.056,0-1.914-0.866-1.914-1.933V47.73h3.419c0.2,1.068,1.129,1.876,2.246,1.876c1.115,0,2.044-0.808,2.245-1.876h26.51
			c0.199,1.068,1.129,1.876,2.243,1.876c1.117,0,2.045-0.808,2.247-1.876h3.419V50.116L72.162,50.116z M74.526,42.957H27.469h-13.96
			v-1.819h74.976v1.819H74.526L74.526,42.957z M88.485,27.956v1.818H13.509v-1.818H88.485L88.485,27.956z M88.485,34.548v1.817
			H13.509v-1.817H88.485z M88.485,21.365v1.819H13.509v-1.819H88.485z M88.485,16.592H13.509V14.66h74.976V16.592z M97.267,57.354
			h-4.054v-45.08c0-1.318-1.059-2.387-2.363-2.387H11.146c-1.306,0-2.364,1.069-2.364,2.387v45.08H4.729V4.773h92.538V57.354z"/>
	</g>
</g>
</svg>
