<?xml version="1.0" encoding="utf-8"?>
<!-- Generator: Adobe Illustrator 16.0.0, SVG Export Plug-In . SVG Version: 6.00 Build 0)  -->
<!DOCTYPE svg PUBLIC "-//W3C//DTD SVG 1.1//EN" "http://www.w3.org/Graphics/SVG/1.1/DTD/svg11.dtd">
<svg version="1.1" id="Layer_1" xmlns="http://www.w3.org/2000/svg" xmlns:xlink="http://www.w3.org/1999/xlink" x="0px" y="0px"
	 width="55px" height="65px" viewBox="0 0 55 65" enable-background="new 0 0 55 65" xml:space="preserve">
<g>
	<g>
		<path fill="#F47752" d="M54.402,16.53L42.995,7.167c-0.614-0.504-1.506-0.504-2.121,0L29.467,16.53
			C29.09,16.84,28.87,17.3,28.87,17.785v45.544c0,0.902,0.743,1.634,1.657,1.634h22.815c0.914,0,1.657-0.731,1.657-1.634V17.785
			C55,17.3,54.781,16.84,54.402,16.53L54.402,16.53z M51.685,61.695H32.186V18.551l9.75-8.003l9.749,8.003V61.695z"/>
		<path fill="#F47752" d="M30.529,12.63c0.374,0,0.75-0.124,1.061-0.378L41.936,3.76l10.346,8.492
			c0.704,0.578,1.749,0.483,2.334-0.21c0.586-0.693,0.491-1.723-0.213-2.3L42.995,0.378c-0.614-0.505-1.506-0.504-2.121,0
			L29.467,9.741c-0.703,0.578-0.798,1.607-0.212,2.301C29.583,12.43,30.054,12.63,30.529,12.63L30.529,12.63z"/>
		<path fill="#F47752" d="M25.532,35.319l-11.407-9.363c-0.616-0.504-1.507-0.504-2.122,0L0.597,35.319
			C0.219,35.629,0,36.089,0,36.574v26.755c0,0.901,0.742,1.634,1.658,1.634h22.813c0.916,0,1.658-0.732,1.658-1.634V36.574
			C26.129,36.089,25.91,35.629,25.532,35.319L25.532,35.319z M22.813,61.695H3.315V37.34l9.749-8.002l9.75,8.002V61.695z"/>
		<path fill="#F47752" d="M2.718,31.041l10.346-8.492l10.347,8.492c0.31,0.254,0.686,0.379,1.06,0.378
			c0.476,0,0.947-0.2,1.275-0.588c0.586-0.693,0.49-1.723-0.213-2.301l-11.407-9.363c-0.616-0.504-1.507-0.504-2.122,0L0.597,28.53
			c-0.704,0.578-0.799,1.608-0.213,2.301C0.97,31.525,2.014,31.619,2.718,31.041L2.718,31.041z"/>
		<path fill="#F47752" d="M11.407,38.833v12.113l-0.756-0.744c-0.647-0.639-1.697-0.639-2.344,0c-0.647,0.638-0.647,1.673,0,2.311
			l3.266,3.219c0.411,0.404,0.95,0.607,1.49,0.607s1.081-0.203,1.492-0.607l3.266-3.219c0.647-0.638,0.647-1.673,0-2.311
			c-0.648-0.639-1.697-0.639-2.344,0l-0.755,0.744V38.833c0-0.902-0.742-1.633-1.658-1.633C12.149,37.2,11.407,37.931,11.407,38.833
			L11.407,38.833z"/>
		<path fill="#F47752" d="M40.444,34.81l-3.266,3.218c-0.647,0.639-0.647,1.673,0,2.312c0.646,0.637,1.697,0.637,2.344,0
			l0.755-0.745v12.113c0,0.903,0.742,1.634,1.658,1.634c0.915,0,1.656-0.73,1.656-1.634V39.595l0.756,0.744
			c0.324,0.318,0.748,0.478,1.173,0.478c0.424,0,0.848-0.159,1.172-0.478c0.646-0.638,0.646-1.673,0-2.311l-3.267-3.219
			C42.604,33.999,41.267,34,40.444,34.81L40.444,34.81z"/>
	</g>
</g>
</svg>
