<?xml version="1.0" encoding="utf-8"?>
<!-- Generator: Adobe Illustrator 16.0.0, SVG Export Plug-In . SVG Version: 6.00 Build 0)  -->
<!DOCTYPE svg PUBLIC "-//W3C//DTD SVG 1.1//EN" "http://www.w3.org/Graphics/SVG/1.1/DTD/svg11.dtd">
<svg version="1.1" id="Layer_1" xmlns="http://www.w3.org/2000/svg" xmlns:xlink="http://www.w3.org/1999/xlink" x="0px" y="0px"
	 width="60px" height="78px" viewBox="0 0 60 78" enable-background="new 0 0 60 78" xml:space="preserve">
<g>
	<g>
		<path fill="#F47752" d="M52.586,8.563H35.775V1.726C35.775,0.772,35.011,0,34.068,0h-8.105c-0.942,0-1.707,0.772-1.707,1.726
			v6.837H7.445c-4.043,0-7.333,3.325-7.333,7.412v23.008c0,4.087,3.289,7.413,7.333,7.413h16.811v29.88
			c0,0.953,0.764,1.725,1.707,1.725h8.105c0.942,0,1.706-0.771,1.706-1.725v-29.88h16.812c4.043,0,7.333-3.326,7.333-7.412V15.974
			C59.919,11.888,56.629,8.563,52.586,8.563z M56.505,38.983c0,2.184-1.758,3.961-3.919,3.961H7.445
			c-2.162,0-3.919-1.777-3.919-3.961V15.974c0-2.185,1.757-3.961,3.919-3.961h45.141c2.161,0,3.919,1.776,3.919,3.961V38.983z
			 M27.669,3.451h4.692v5.112h-4.692V3.451z M32.361,74.549h-4.692V46.396h4.692V74.549z"/>
		<path fill="#F47752" d="M6.687,13.354c-0.449,0-0.889,0.185-1.206,0.505c-0.32,0.32-0.5,0.767-0.5,1.22
			c0,0.453,0.181,0.896,0.5,1.219c0.317,0.321,0.757,0.506,1.206,0.506c0.449,0,0.888-0.185,1.207-0.506
			c0.317-0.323,0.5-0.766,0.5-1.219c0-0.454-0.183-0.9-0.5-1.22C7.574,13.539,7.136,13.354,6.687,13.354z"/>
		<path fill="#F47752" d="M53.345,13.354c-0.449,0-0.89,0.185-1.208,0.505c-0.317,0.32-0.5,0.767-0.5,1.22
			c0,0.453,0.183,0.899,0.5,1.219c0.32,0.321,0.759,0.506,1.208,0.506c0.451,0,0.89-0.185,1.206-0.506
			c0.319-0.323,0.5-0.766,0.5-1.219c0-0.454-0.181-0.9-0.5-1.22C54.234,13.539,53.796,13.354,53.345,13.354L53.345,13.354z"/>
		<path fill="#F47752" d="M14.247,20.191h-3.695c-0.942,0-1.706,0.772-1.706,1.725V34.52c0,0.953,0.764,1.725,1.706,1.725
			c0.943,0,1.707-0.772,1.707-1.725v-2.258l3.3,3.456c0.335,0.351,0.781,0.527,1.229,0.527c0.426,0,0.854-0.161,1.185-0.484
			c0.678-0.662,0.697-1.754,0.042-2.439l-3.258-3.413c2.102-0.255,3.738-2.066,3.738-4.258v-1.168
			C18.494,22.116,16.589,20.191,14.247,20.191L14.247,20.191z M15.08,25.651c0,0.465-0.374,0.842-0.833,0.842h-1.988v-2.852h1.988
			c0.459,0,0.833,0.378,0.833,0.842V25.651z"/>
		<path fill="#F47752" d="M23.76,23.641h4.25c0.942,0,1.707-0.773,1.707-1.726c0-0.952-0.764-1.725-1.707-1.725h-4.25
			c-2.036,0-3.692,1.673-3.692,3.731v8.591c0,2.058,1.657,3.732,3.692,3.732h4.25c0.942,0,1.707-0.772,1.707-1.725
			s-0.764-1.725-1.707-1.725h-4.25c-0.153,0-0.279-0.127-0.279-0.282v-2.57h4.528c0.942,0,1.706-0.772,1.706-1.725
			c0-0.953-0.764-1.725-1.706-1.725h-4.528v-2.57C23.481,23.768,23.606,23.641,23.76,23.641z"/>
		<path fill="#F47752" d="M50.454,20.191H44.22c-0.942,0-1.708,0.772-1.708,1.725c0,0.953,0.766,1.726,1.708,1.726h1.41V34.52
			c0,0.953,0.764,1.725,1.707,1.725c0.942,0,1.706-0.772,1.706-1.725V23.641h1.411c0.942,0,1.706-0.773,1.706-1.726
			C52.16,20.963,51.396,20.191,50.454,20.191z"/>
		<path fill="#F47752" d="M39.231,20.191c-0.942,0-1.707,0.772-1.707,1.725v5.296l-3.001-6.067
			c-0.354-0.716-1.148-1.092-1.918-0.907c-0.771,0.183-1.315,0.878-1.315,1.678V34.52c0,0.953,0.765,1.725,1.707,1.725
			s1.706-0.772,1.706-1.725v-5.296l3.002,6.067c0.293,0.594,0.892,0.954,1.526,0.954c0.13,0,0.261-0.015,0.393-0.046
			c0.77-0.184,1.314-0.88,1.314-1.68V21.916C40.938,20.963,40.175,20.191,39.231,20.191L39.231,20.191z"/>
	</g>
</g>
</svg>
