<?xml version="1.0" encoding="utf-8"?>
<!-- Generator: Adobe Illustrator 16.0.0, SVG Export Plug-In . SVG Version: 6.00 Build 0)  -->
<!DOCTYPE svg PUBLIC "-//W3C//DTD SVG 1.1//EN" "http://www.w3.org/Graphics/SVG/1.1/DTD/svg11.dtd">
<svg version="1.1" id="Layer_1" xmlns="http://www.w3.org/2000/svg" xmlns:xlink="http://www.w3.org/1999/xlink" x="0px" y="0px"
	 width="58px" height="54px" viewBox="0 0 58 54" enable-background="new 0 0 58 54" xml:space="preserve">
<g>
	<g>
		<path fill="#F47752" d="M9.617,15.581h23.587c0.934,0,1.689-0.752,1.689-1.68c0-0.928-0.756-1.68-1.689-1.68H9.617
			c-0.934,0-1.691,0.752-1.691,1.68C7.926,14.829,8.684,15.581,9.617,15.581z"/>
		<path fill="#F47752" d="M9.617,21.352h23.587c0.934,0,1.689-0.752,1.689-1.68c0-0.928-0.756-1.679-1.689-1.679H9.617
			c-0.934,0-1.691,0.751-1.691,1.679C7.926,20.6,8.684,21.352,9.617,21.352z"/>
		<path fill="#F47752" d="M22.094,41.075H9.617c-0.934,0-1.691,0.753-1.691,1.679c0,0.929,0.758,1.681,1.691,1.681h12.477
			c0.934,0,1.691-0.752,1.691-1.681C23.786,41.828,23.028,41.075,22.094,41.075z"/>
		<path fill="#F47752" d="M57.187,3.203L52.215,0.24c-0.384-0.229-0.845-0.298-1.278-0.189c-0.436,0.108-0.811,0.383-1.041,0.765
			l-8.653,14.329V4.989c0-0.927-0.758-1.68-1.69-1.68H1.691C0.757,3.31,0,4.062,0,4.989V52.32C0,53.248,0.757,54,1.691,54h37.861
			c0.933,0,1.69-0.752,1.69-1.68V32.868L57.766,5.507C58.246,4.712,57.986,3.681,57.187,3.203L57.187,3.203z M35.351,36.092
			l-2.805,2.314l0.733-3.549l16.22-26.855l2.072,1.234L35.351,36.092L35.351,36.092z M53.31,6.355l-2.071-1.234l0.688-1.137
			l2.071,1.234L53.31,6.355z M3.381,50.64V6.669h34.478v14.074l-2.985,4.944c0.012-0.08,0.02-0.161,0.02-0.245
			c0-0.927-0.756-1.679-1.689-1.679H9.617c-0.934,0-1.691,0.752-1.691,1.679c0,0.928,0.758,1.679,1.691,1.679h23.587
			c0.376,0,0.723-0.124,1.003-0.33l-1.655,2.742H9.617c-0.934,0-1.691,0.751-1.691,1.68c0,0.926,0.758,1.68,1.691,1.68h20.905
			l-0.291,0.482c-0.098,0.161-0.167,0.339-0.205,0.523l-0.292,1.404H9.617c-0.934,0-1.691,0.754-1.691,1.681
			c0,0.928,0.758,1.68,1.691,1.68h19.422l-0.777,3.753c-0.145,0.698,0.171,1.412,0.786,1.779c0.269,0.16,0.57,0.238,0.87,0.238
			c0.386,0,0.77-0.13,1.082-0.387l6.732-5.553c0.045-0.038,0.086-0.083,0.127-0.127V50.64H3.381L3.381,50.64z"/>
	</g>
</g>
</svg>
